PathFileType	4	(X/Y/Z)	C:\Users\Basilio\Documents\Thesis Gigler\squatting_fais\c3dfiles\075\SLS_front_pre5\markers_experimental.trc
DataRate	CameraRate	NumFrames	NumMarkers	Units	OrigDataRate	OrigDataStartFrame	OrigNumFrames
200.000000	200.000000	4	61	mm	200.000000	340	1363
Frame#	Time	FHD			LBHD			C7			T10			CLAV			LSHO			LUUPA			LMUPA			LDUPA			LLEP			LMEP			LRAD			LUL			LRFIN			RSHO			RUPA1			RMUPA			RDUPA			RLEP			RMEP			RRAD			RUL			RUFIN			RASI			USACR			LSACR			RSACR			LTHI1			LTHI2			LTHI3			LTHI4			LLFC			LMFC			LTIB1			LTIB2			LTIB3			LTIB4			LLMAL			LMMAL			LHEE			LMT1			LMT2			LMT5			RTHI			RTHI2			RTHI3			RTHI4			RLFC			RMFC			RTIB1			RTIB2			RTIB3			RTIB4			RLMAL			RMMAL			RHEE			RMT1			RMT2			RMT5			LASI			RBHD			
		X1	Y1	Z1	X2	Y2	Z2	X3	Y3	Z3	X4	Y4	Z4	X5	Y5	Z5	X6	Y6	Z6	X7	Y7	Z7	X8	Y8	Z8	X9	Y9	Z9	X10	Y10	Z10	X11	Y11	Z11	X12	Y12	Z12	X13	Y13	Z13	X14	Y14	Z14	X15	Y15	Z15	X16	Y16	Z16	X17	Y17	Z17	X18	Y18	Z18	X19	Y19	Z19	X20	Y20	Z20	X21	Y21	Z21	X22	Y22	Z22	X23	Y23	Z23	X24	Y24	Z24	X25	Y25	Z25	X26	Y26	Z26	X27	Y27	Z27	X28	Y28	Z28	X29	Y29	Z29	X30	Y30	Z30	X31	Y31	Z31	X32	Y32	Z32	X33	Y33	Z33	X34	Y34	Z34	X35	Y35	Z35	X36	Y36	Z36	X37	Y37	Z37	X38	Y38	Z38	X39	Y39	Z39	X40	Y40	Z40	X41	Y41	Z41	X42	Y42	Z42	X43	Y43	Z43	X44	Y44	Z44	X45	Y45	Z45	X46	Y46	Z46	X47	Y47	Z47	X48	Y48	Z48	X49	Y49	Z49	X50	Y50	Z50	X51	Y51	Z51	X52	Y52	Z52	X53	Y53	Z53	X54	Y54	Z54	X55	Y55	Z55	X56	Y56	Z56	X57	Y57	Z57	X58	Y58	Z58	X59	Y59	Z59	X60	Y60	Z60	X61	Y61	Z61	

341	1.7	-278.5822143554688	1697.124145507813	-789.268493652344	-422.8937072753907	1579.594482421875	-861.899597167969	-460.3321838378907	1466.775756835938	-798.6888427734377	-497.0220642089845	1145.736083984375	-776.8748168945315	-319.4773864746094	1402.165161132813	-787.1798095703127	-344.1260375976563	1436.3203125	-928.2369384765627	-191.0496673583985	1346.039184570313	-1006.252136230469	-165.3140258789063	1368.026000976563	-970.2366333007815	-124.3389968872071	1333.164916992188	-997.3215332031252	-44.79403305053712	1319.621337890625	-979.4084472656252	-67.96011352539064	1254.326904296875	-930.6729736328127	nan	nan	nan	190.1304626464844	1334.223022460938	-871.5642700195315	192.8679504394532	1367.514404296875	-768.8824462890627	-360.7080688476563	1449.310668945313	-651.8709716796876	-221.3427276611329	1369.009643554688	-538.8958740234376	-186.5617065429688	1383.867797851563	-569.8028564453126	-152.9443817138672	1352.53564453125	-529.3872070312501	-83.54077911376955	1340.701293945313	-533.2428588867189	-84.0278778076172	1267.755249023438	-560.3515014648439	130.0360260009766	1359.009399414063	-707.9457397460939	153.4321441650391	1364.283325195313	-635.5968017578126	205.7845153808594	1388.744384765625	-738.4533691406251	-330.5301208496094	971.405944824219	-663.7252807617189	-493.308074951172	1035.527587890625	-786.3256835937502	-499.9251403808595	1005.848571777344	-815.9062500000002	-497.1040954589845	1002.048461914063	-758.9116821289064	-270.8464355468751	789.7446289062502	-997.051696777344	-201.2223815917969	743.3324584960939	-992.7856445312502	-168.8247833251953	770.9764404296877	-967.477478027344	-193.3037719726563	684.2202758789064	-991.7279052734377	-142.3775329589844	585.0767211914064	-986.127624511719	-111.6817932128907	582.7690429687501	-859.0845947265627	-35.9410743713379	503.1290283203126	-952.9617919921877	-67.31290435791017	443.8489379882814	-1008.142944335938	-29.8603858947754	455.5490722656251	-985.2196044921877	3.794500589370728	381.6257934570313	-959.3995361328127	6.508251190185549	220.5824584960938	-989.3692016601565	20.84443473815918	244.2338867187501	-905.2490234375002	-39.49315261840821	174.4928588867188	-951.0476074218752	160.835189819336	214.7110137939454	-897.0748291015627	171.0330657958985	215.2638397216797	-945.780212402344	146.352783203125	180.7520446777344	-996.915222167969	-363.7251586914063	759.0167236328126	-617.7714843750001	-315.2727966308594	714.5780029296876	-620.5193481445314	-284.5254211425782	727.1220703125001	-627.2767944335939	-325.2689208984376	631.1765747070314	-637.4370117187501	-310.6846313476563	481.9978027343751	-679.6421508789064	-269.0436401367188	491.143280029297	-800.4663696289065	-269.1631774902344	342.4557495117188	-763.5358276367189	-328.8197326660157	264.5742187500001	-718.6080932617189	-292.2872924804688	259.0909118652344	-751.1006469726564	-308.7095642089844	222.8640594482422	-792.7243652343752	-394.4022521972657	111.3368530273438	-773.5530395507815	-359.7121582031251	139.2808685302735	-851.2720947265627	-445.4324645996095	94.07326507568361	-836.164978027344	-242.2712554931641	54.6390953063965	-824.590759277344	-246.0277709960938	55.82750320434572	-782.4831542968752	-289.1563720703126	35.72452926635743	-735.0120849609376	-336.4394226074219	992.212585449219	-915.1682128906252	nan	nan	nan	
342	1.705	-278.2189941406251	1696.938598632813	-789.1790161132815	-422.5622863769532	1579.366088867188	-861.8852539062502	-459.9827880859376	1466.652587890625	-798.6652832031252	-497.2026367187501	1145.701904296875	-776.6604003906252	-318.4836730957032	1401.630126953125	-786.6383056640627	-343.7179260253907	1436.149291992188	-928.0439453125002	-190.676498413086	1345.903076171875	-1006.108764648438	-164.942855834961	1367.85546875	-970.0359497070315	-123.9180526733399	1332.96533203125	-997.163757324219	-44.30585098266602	1319.400390625	-979.2227783203127	-67.57246398925783	1254.141967773438	-930.637145996094	nan	nan	nan	190.5826721191407	1334.053466796875	-871.3264770507815	193.4201660156251	1366.937133789063	-768.5358886718752	-360.4907531738282	1449.112060546875	-651.8656005859376	-221.0825958251954	1369.056640625	-538.8607788085939	-186.2348785400391	1383.80224609375	-569.7200927734376	-152.7149963378907	1352.526245117188	-529.5415649414064	-83.39675903320314	1340.521118164063	-533.3626098632814	-83.90529632568361	1267.590942382813	-560.2780761718751	130.0274047851563	1358.61376953125	-707.3686523437501	153.81298828125	1364.058837890625	-635.2763061523439	206.247299194336	1388.517944335938	-738.1311035156251	-331.0320434570313	971.174255371094	-663.4661254882814	-493.7172851562501	1035.430786132813	-786.1170654296877	-500.1865234375001	1005.814636230469	-815.7546997070315	-497.5043945312501	1001.859497070313	-758.7734985351564	-271.0529174804688	789.8206787109377	-997.0115966796877	-201.3014678955079	743.4559936523439	-992.6934204101565	-168.9626770019532	771.0874633789065	-967.3670043945315	-193.3569488525391	684.2990112304689	-991.6853027343752	-142.5258941650391	585.2424316406251	-986.0848388671877	-111.7886734008789	582.8604125976564	-859.0486450195315	-35.95266342163087	503.2336730957032	-952.8677368164065	-67.40871429443361	443.9922485351564	-1008.146362304688	-29.94875526428223	455.6716918945314	-985.1497192382815	3.641223907470704	381.7087402343751	-959.375183105469	6.360895156860353	220.7184143066407	-989.3760375976565	20.55257225036621	244.3694458007813	-905.2421875000002	-39.96541595458985	174.8553619384766	-951.258728027344	160.3260498046875	214.1862030029297	-896.816833496094	170.9149932861328	214.3864288330079	-945.3926391601565	146.0044097900391	180.0681304931641	-996.5157470703127	-364.0860900878907	758.7168579101564	-617.6544799804689	-315.4765319824219	714.4430541992189	-620.3696289062501	-284.7469177246094	727.0004882812501	-627.0402832031251	-325.2790222167969	630.9021606445314	-637.3106689453126	-310.5621337890626	481.8397521972657	-679.4354248046876	-268.6119995117188	491.156707763672	-800.2598266601565	-268.9296875000001	342.3516540527344	-763.3497314453126	-328.7121887207032	264.5419006347657	-718.3995971679689	-292.1598815917969	259.0195312500001	-750.9386596679689	-308.6188659667969	222.8282775878907	-792.5703125000002	-394.415985107422	111.3341903686524	-773.5070800781252	-359.6661682128907	139.3451843261719	-851.259948730469	-445.3846435546876	94.07080078125001	-836.1345214843752	-242.2778778076172	54.61140060424806	-824.625427246094	-246.0342712402344	55.80409622192384	-782.4863281250002	-289.1408386230469	35.68067932128907	-734.9747314453126	-336.8090820312501	992.2055664062502	-914.937438964844	nan	nan	nan	
343	1.71	-277.8853759765626	1696.711547851563	-789.0642089843752	-422.2392578125001	1579.32958984375	-861.8706054687502	-459.6043090820314	1466.470825195313	-798.6562500000002	-497.3677062988282	1145.623901367188	-776.5065917968752	-318.8790893554688	1401.685180664063	-786.9689941406252	-343.3604736328126	1435.88330078125	-928.002624511719	-190.2086639404297	1345.846923828125	-1005.865905761719	-164.5022888183594	1367.687255859375	-969.7849731445315	-123.4080200195313	1332.881469726563	-996.973083496094	-43.87856674194337	1319.209838867188	-979.1072998046877	-67.22789001464845	1254.024780273438	-930.742858886719	nan	nan	nan	191.4116821289063	1333.771850585938	-870.9646606445315	193.6052551269532	1366.927612304688	-768.2076416015627	-360.2792663574219	1448.923828125	-651.8837890625001	-220.7031250000001	1369.094970703125	-538.6368408203126	-185.9555206298828	1383.716674804688	-569.6585083007814	-152.4686279296875	1352.484252929688	-529.4635009765626	-83.15136718750001	1340.470336914063	-533.3391113281251	-83.73494720458986	1267.440795898438	-560.1300659179689	129.7030792236328	1357.331787109375	-705.8491821289064	154.0894012451172	1363.709716796875	-634.9704589843751	206.6163635253907	1388.223388671875	-737.8433227539064	-331.5238952636719	970.800476074219	-663.3260498046876	-494.0244140625001	1035.267333984375	-785.9500122070315	-500.4918823242189	1005.741577148438	-815.6187744140627	-497.7484741210939	1001.730041503906	-758.6331176757814	-271.1357116699219	789.8472290039065	-996.880310058594	-201.3638610839844	743.5681152343751	-992.6176757812502	-169.1160888671875	771.2498779296877	-967.2796020507815	-193.4729766845704	684.3986816406251	-991.6343994140627	-142.6291961669922	585.5202026367189	-986.1204223632815	-111.8726959228516	583.0134887695314	-859.045593261719	-36.0066261291504	503.3644409179689	-952.7811279296877	-67.45871734619142	444.2580871582032	-1008.220703125	-30.0304298400879	455.7808837890626	-985.128112792969	3.401318788528443	381.8149108886719	-959.456481933594	6.163562297821047	220.8297729492188	-989.4538574218752	20.305570602417	244.4439239501954	-905.256774902344	-39.99390029907227	175.1970825195313	-951.3129882812502	159.8137664794922	213.7013854980469	-896.5598144531252	170.5999908447266	213.7722625732422	-945.093688964844	145.624740600586	179.3631896972657	-996.1794433593752	-364.3841247558594	758.4343261718751	-617.5155029296876	-315.5827331542969	714.2125244140626	-620.1068115234376	-284.9732360839844	726.7802734375001	-626.7171020507814	-325.3507385253907	630.6914062500001	-637.0177001953126	-310.2893981933594	481.7250061035157	-679.2756958007814	-268.1688537597657	491.0575256347657	-800.0122680664065	-268.6991882324219	342.3213500976563	-763.0241699218751	-328.5662841796876	264.4869384765626	-718.2084960937501	-291.5534667968751	258.9058837890626	-750.4201660156251	-308.4946594238282	222.7788848876954	-792.3840942382815	-394.4371337890626	111.3202209472657	-773.4802246093752	-359.6560363769532	139.3939361572266	-851.1566162109377	-445.3701171875001	94.10257720947267	-836.1256103515627	-242.4127807617188	54.60972213745119	-824.7510375976565	-246.0459899902344	55.76364517211915	-782.4932250976565	-289.1827087402344	35.6727409362793	-734.9566040039064	-337.0932617187501	992.1038818359377	-914.7600708007815	nan	nan	nan	
344	1.715	-277.5009765625001	1696.495361328125	-788.945495605469	-421.854949951172	1578.92822265625	-861.7087402343752	-459.2536926269532	1466.323364257813	-798.488952636719	-497.6058349609376	1145.547485351563	-776.3264160156252	-318.6184692382813	1401.412231445313	-786.8762207031252	-342.9786071777344	1435.585083007813	-927.8696899414065	-189.6657867431641	1345.794189453125	-1006.073181152344	-164.2757568359375	1367.513427734375	-969.6235351562502	-123.2945404052735	1332.633544921875	-996.3537597656252	-43.50640487670899	1319.02783203125	-978.967224121094	-66.81027984619142	1253.848266601563	-930.7467041015627	nan	nan	nan	191.7866973876953	1333.572631835938	-870.762145996094	194.4517669677735	1366.29736328125	-767.9609985351564	-360.0072631835938	1448.821166992188	-651.7905883789064	-220.4835510253907	1369.055786132813	-538.7482299804689	-185.6688995361328	1383.614135742188	-569.6054077148439	-152.2118682861328	1352.449829101563	-529.4075927734376	-82.9282684326172	1340.420776367188	-533.2789306640626	-83.54680633544923	1267.374755859375	-559.9593505859376	129.6892395019532	1357.31201171875	-706.7777709960939	154.442855834961	1363.460083007813	-634.7028198242189	207.0096588134766	1387.830688476563	-737.6307983398439	-332.0744628906251	970.3777465820315	-663.2000732421876	-494.3858947753907	1035.151123046875	-785.8004150390627	-500.839813232422	1005.625183105469	-815.4669189453127	-498.1429443359376	1001.583312988281	-758.4678344726564	-271.2365417480469	789.8955078125002	-996.8336181640627	-201.5669250488282	743.7536010742189	-992.6523437500002	-169.2939758300782	771.3682250976565	-967.224548339844	-193.5738067626954	684.4978027343751	-991.634216308594	-142.6546173095703	585.7206420898439	-986.1965332031252	-111.9071578979492	583.1936645507814	-858.9680175781252	-36.4902687072754	503.7031860351564	-953.0181884765627	-67.2013626098633	444.1022033691407	-1008.115905761719	-30.09261703491212	455.9809875488282	-985.0855712890627	3.650722026824952	381.8560791015626	-959.162780761719	6.273089885711672	220.9351501464844	-989.5770263671877	20.1201286315918	244.6269989013672	-905.3126220703127	-40.36527633666993	175.5920104980469	-951.4606933593752	159.4144287109375	213.3207397460938	-896.3522949218752	170.394515991211	213.1862945556641	-944.3524169921877	145.2715454101563	178.762680053711	-995.7578125000002	-364.6529846191407	758.1788330078126	-617.3877563476564	-315.8334655761719	713.9549560546876	-619.9055175781251	-285.2193603515626	726.5823364257814	-626.3860473632814	-325.3535156250001	630.4432373046876	-636.8418579101564	-310.0309448242188	481.6010131835939	-679.0998535156251	-267.7365112304688	490.9938049316407	-799.790710449219	-268.4814453125001	342.2231140136719	-762.8653564453126	-328.4360046386719	264.3999328613282	-718.0770263671876	-291.4414978027344	258.8316040039063	-750.2710571289064	-308.3222656250001	222.7141723632813	-792.1553955078127	-394.3967285156251	111.3599395751953	-773.3931274414065	-359.5712280273438	139.4527893066407	-851.0185546875002	-445.3605957031251	94.10837554931642	-836.0649414062502	-242.4323883056641	54.61862182617189	-824.7786254882815	-246.0594329833985	55.75082778930665	-782.4490966796877	-289.1893615722657	35.68831634521485	-734.9475097656251	-337.4205322265626	991.9620361328127	-914.5028076171877	nan	nan	nan	
